<?xml version="1.0" standalone="no"?>
<!DOCTYPE svg PUBLIC "-//W3C//DTD SVG 20010904//EN"
 "http://www.w3.org/TR/2001/REC-SVG-20010904/DTD/svg10.dtd">
<svg version="1.0" xmlns="http://www.w3.org/2000/svg"
 width="2980.000000pt" height="1824.000000pt" viewBox="0 0 2980.000000 1824.000000"
 preserveAspectRatio="xMidYMid meet">

<g transform="translate(0.000000,1824.000000) scale(0.100000,-0.100000)"
fill="#000000" stroke="none">
<path d="M7413 11136 c-87 -28 -135 -72 -183 -165 -18 -35 -22 -61 -22 -121 0
-99 13 -144 60 -205 90 -119 262 -159 399 -93 50 23 113 91 142 153 29 63 30
210 1 270 -32 67 -84 120 -142 145 -65 29 -192 37 -255 16z m190 -53 c70 -19
110 -56 152 -138 24 -48 27 -64 22 -114 -9 -105 -66 -198 -142 -232 -28 -13
-64 -19 -121 -19 -72 0 -85 3 -127 30 -80 51 -133 160 -123 258 8 93 81 186
166 216 59 20 100 20 173 -1z"/>
<path d="M7467 10854 c-4 -4 -7 -15 -7 -25 0 -22 53 -34 106 -25 29 6 35 11
32 29 -3 19 -10 22 -63 25 -34 2 -64 0 -68 -4z"/>
<path d="M21766 10861 c-18 -114 -73 -231 -126 -269 -14 -9 -59 -28 -100 -42
-67 -23 -75 -29 -78 -53 -4 -32 25 -47 93 -47 25 0 45 -5 48 -13 2 -7 3 -183
1 -392 -4 -456 4 -603 36 -669 37 -77 99 -131 174 -151 99 -27 178 -17 282 34
76 38 84 45 95 81 7 22 10 43 7 46 -3 3 -27 -9 -54 -25 -61 -39 -145 -44 -188
-10 -57 45 -56 34 -56 589 l0 510 133 0 c72 0 138 4 145 9 8 5 12 22 10 42
l-3 34 -142 3 -143 3 0 179 0 180 -64 0 -63 0 -7 -39z"/>
<path d="M6460 10836 c0 -13 6 -26 13 -29 20 -7 563 -9 613 -1 39 5 45 9 42
28 -3 21 -5 21 -335 24 l-333 2 0 -24z"/>
<path d="M7933 10844 c-4 -11 1 -22 13 -31 15 -11 74 -14 314 -13 162 1 305 4
318 7 15 4 22 12 22 29 l0 24 -330 0 c-298 0 -331 -2 -337 -16z"/>
<path d="M12585 10519 c-93 -45 -181 -79 -248 -93 -25 -6 -28 -11 -25 -39 3
-31 5 -32 57 -37 42 -5 58 -12 77 -33 l24 -28 0 -454 0 -454 -22 -21 c-12 -11
-49 -30 -81 -42 -54 -20 -58 -23 -55 -51 l3 -30 303 -1 303 -1 6 22 c8 36 -1
47 -50 60 -26 7 -61 26 -79 42 l-33 29 0 369 c0 367 0 368 24 428 38 93 69
134 122 161 76 38 114 33 195 -26 38 -28 79 -53 92 -57 35 -8 109 24 134 60
31 43 31 121 0 164 -29 41 -114 83 -166 83 -73 0 -177 -28 -228 -61 -65 -42
-142 -130 -178 -204 -33 -68 -36 -57 -15 70 19 115 19 160 -1 179 -24 24 -51
19 -159 -35z"/>
<path d="M16254 10527 c-49 -24 -133 -58 -187 -76 -54 -18 -101 -39 -103 -46
-11 -27 15 -55 51 -55 54 0 102 -28 109 -63 3 -16 6 -227 6 -468 0 -430 0
-439 -21 -458 -17 -16 -66 -38 -127 -57 -8 -2 -12 -16 -10 -35 l3 -32 302 -1
c319 -1 313 -2 313 43 0 13 -17 25 -59 40 -33 12 -70 30 -83 40 l-23 19 -3
379 c-3 266 0 389 8 417 15 51 160 198 221 225 68 29 138 35 187 16 34 -14 46
-27 69 -73 l28 -57 3 -447 c2 -299 0 -453 -7 -467 -6 -10 -42 -31 -81 -47 -56
-22 -70 -31 -70 -48 0 -12 4 -25 8 -31 4 -6 118 -10 305 -10 l297 0 2 23 c0
12 1 27 2 33 1 6 -23 19 -53 29 -29 10 -65 30 -80 44 l-26 26 -6 448 c-5 416
-7 451 -26 505 -40 113 -109 180 -217 212 -94 28 -243 10 -335 -41 -70 -37
-155 -111 -201 -172 l-40 -54 7 121 c5 108 4 123 -12 141 -26 29 -51 25 -151
-23z"/>
<path d="M20695 10554 c-150 -23 -240 -58 -318 -125 -73 -63 -108 -120 -114
-188 -9 -101 38 -151 142 -151 68 0 93 30 138 165 23 67 49 125 67 146 35 43
125 80 199 82 46 2 54 -1 87 -34 32 -33 37 -44 45 -115 6 -43 9 -124 7 -178
l-3 -99 -170 -43 c-253 -63 -400 -128 -493 -221 -79 -78 -102 -136 -102 -254
0 -87 3 -101 31 -157 62 -125 167 -177 354 -177 101 0 115 2 168 28 70 35 171
126 198 179 11 21 22 38 25 38 4 0 3 -44 0 -97 -11 -168 15 -180 221 -100 65
26 143 55 173 64 55 18 55 18 55 58 l0 40 -57 5 c-43 4 -61 11 -77 29 -20 23
-21 34 -21 377 0 473 -15 570 -104 659 -78 77 -238 102 -451 69z m255 -772 l0
-199 -30 -60 c-38 -77 -101 -148 -153 -174 -32 -17 -54 -20 -108 -17 -84 5
-113 24 -152 99 -26 50 -28 61 -25 144 4 72 9 100 30 140 39 75 128 151 233
200 45 21 173 64 193 65 9 0 12 -46 12 -198z"/>
<path d="M23790 10518 c-58 -29 -141 -61 -185 -73 -74 -20 -80 -24 -83 -50 -5
-36 11 -50 53 -47 42 4 80 -20 94 -60 7 -20 11 -182 11 -469 0 -503 8 -461
-99 -497 -52 -17 -56 -21 -59 -53 l-3 -34 302 1 303 2 8 22 c11 30 -1 42 -54
58 -24 7 -57 24 -73 37 l-30 23 0 384 0 383 40 80 c49 96 97 136 172 142 50 4
63 -2 161 -70 57 -40 108 -45 152 -15 45 30 60 61 60 123 0 61 -15 93 -58 122
-74 49 -228 50 -324 2 -62 -32 -162 -133 -198 -201 -19 -34 -35 -57 -37 -51
-2 6 3 51 11 100 21 117 20 156 -2 176 -28 25 -47 21 -162 -35z"/>
<path d="M11393 10550 c-117 -15 -220 -60 -297 -132 -90 -82 -117 -135 -136
-271 -12 -82 6 -183 45 -255 28 -51 101 -136 124 -143 21 -7 4 -29 -22 -29
-78 0 -155 -53 -183 -125 -45 -118 45 -245 198 -280 35 -8 160 -33 278 -55
347 -65 360 -68 393 -88 55 -31 77 -76 77 -151 0 -78 -22 -131 -71 -177 -137
-128 -438 -137 -561 -17 -55 54 -64 93 -47 201 17 103 15 119 -12 148 -36 39
-75 49 -128 35 -99 -26 -147 -99 -139 -209 5 -70 34 -131 91 -190 81 -83 183
-123 364 -143 192 -20 355 4 500 76 171 84 247 189 248 340 0 71 -4 88 -33
148 -71 143 -172 181 -652 246 -85 11 -178 27 -206 36 -90 27 -130 88 -85 129
25 23 73 23 237 1 123 -16 137 -16 230 -1 131 22 206 59 277 136 107 116 152
262 122 398 -8 37 -20 86 -27 109 -17 60 -7 67 76 52 80 -14 109 -8 124 26 17
38 15 121 -4 150 -20 31 -82 49 -136 40 -48 -8 -102 -53 -130 -109 -11 -23
-22 -42 -23 -44 -2 -2 -36 21 -76 52 -117 89 -241 118 -416 96z m150 -91 c144
-40 220 -327 148 -560 -38 -121 -126 -189 -227 -175 -137 18 -200 118 -211
336 -8 159 27 283 99 351 60 56 114 70 191 48z"/>
<path d="M13970 10553 c-117 -6 -216 -44 -318 -121 -96 -72 -175 -201 -217
-352 -24 -89 -25 -288 -1 -385 26 -102 88 -224 146 -288 98 -107 213 -166 375
-192 90 -15 105 -15 179 0 151 30 243 87 317 196 46 68 50 96 15 105 -42 10
-60 0 -98 -57 -72 -110 -161 -160 -281 -160 -201 0 -335 175 -354 464 l-6 97
364 0 c347 0 366 1 397 20 61 37 78 135 47 267 -64 272 -272 421 -565 406z
m153 -120 c48 -34 91 -106 111 -188 18 -69 36 -266 26 -278 -3 -4 -125 -6
-271 -5 l-264 3 3 65 c12 221 91 380 215 427 51 20 134 9 180 -24z"/>
<path d="M15221 10550 c-171 -19 -352 -155 -432 -325 -81 -172 -98 -360 -49
-548 24 -98 90 -225 144 -280 183 -188 486 -244 708 -131 65 33 110 75 158
146 47 70 50 93 15 102 -44 11 -69 -3 -103 -59 -134 -220 -451 -204 -562 29
-40 84 -70 214 -70 304 l0 72 359 0 c198 0 371 4 384 9 76 29 97 148 53 303
-33 114 -74 184 -146 251 -110 101 -274 147 -459 127z m150 -92 c67 -23 124
-89 154 -178 18 -54 47 -302 36 -313 -4 -4 -126 -6 -272 -5 l-264 3 3 70 c12
259 123 430 283 434 14 1 41 -4 60 -11z"/>
<path d="M22780 10549 c-151 -18 -320 -131 -403 -270 -79 -133 -116 -318 -96
-481 38 -322 214 -521 509 -579 122 -24 189 -18 320 29 64 22 85 36 141 93 65
66 116 146 101 161 -4 4 -22 10 -39 14 -35 7 -44 0 -114 -94 -51 -67 -101
-100 -179 -116 -238 -48 -408 135 -427 462 l-6 92 364 0 c398 0 396 0 436 59
44 66 23 243 -46 379 -34 68 -127 160 -197 195 -104 53 -229 72 -364 56z m154
-91 c58 -18 117 -80 144 -153 19 -50 52 -258 52 -327 0 -17 -20 -18 -271 -18
l-272 0 6 98 c11 189 78 328 186 384 59 31 93 34 155 16z"/>
<path d="M18054 10526 c-15 -39 0 -58 59 -76 103 -32 118 -56 221 -350 216
-619 259 -741 282 -802 l26 -68 74 0 c60 0 75 3 82 18 5 9 71 202 147 427 76
226 141 417 146 425 7 13 8 13 13 0 3 -8 34 -96 70 -195 36 -99 101 -283 146
-409 44 -126 85 -237 91 -247 8 -16 22 -19 83 -19 l73 0 16 43 c9 23 53 150
97 282 156 461 260 756 280 794 25 51 49 67 135 93 39 12 73 25 76 31 4 5 3
21 0 36 l-7 26 -265 0 -264 0 0 -35 c0 -34 1 -35 50 -42 86 -14 93 -17 121
-54 43 -56 48 -38 -133 -593 -78 -241 -87 -262 -98 -240 -19 37 -253 739 -261
782 -10 56 8 83 66 97 49 12 61 29 52 73 -3 16 -26 17 -303 17 l-299 0 0 -39
0 -38 51 -6 c28 -4 61 -13 73 -21 27 -17 86 -125 86 -157 0 -22 -221 -714
-232 -724 -7 -8 -278 798 -278 828 1 27 38 59 85 71 48 12 50 14 50 47 l0 34
-303 3 c-256 2 -303 0 -308 -12z"/>
<path d="M6829 10412 c-109 -44 -190 -126 -230 -230 -31 -84 -24 -215 16 -297
37 -76 96 -134 176 -173 91 -45 150 -54 235 -36 103 21 165 56 226 126 29 33
67 67 85 74 42 18 334 20 366 3 12 -7 56 -44 98 -84 80 -77 128 -101 243 -125
45 -9 69 -9 105 0 208 52 336 220 318 415 -11 119 -70 218 -168 284 -77 51
-129 64 -242 59 -140 -6 -189 -33 -308 -175 -24 -29 -30 -31 -124 -38 -117 -9
-280 1 -305 18 -9 6 -39 39 -67 72 -75 90 -137 118 -273 122 -84 3 -114 -1
-151 -15z m277 -68 c38 -19 77 -52 118 -98 33 -38 75 -75 93 -82 40 -17 367
-20 409 -3 16 5 61 45 101 88 91 99 145 125 253 126 65 0 84 -4 142 -33 116
-57 179 -149 186 -272 5 -95 -20 -168 -82 -237 -66 -73 -122 -97 -234 -101
-84 -4 -98 -1 -146 22 -32 16 -78 52 -115 92 -90 94 -115 104 -288 104 -212 0
-229 -5 -327 -104 -104 -105 -139 -120 -268 -114 -105 5 -136 17 -205 81 -152
140 -138 378 28 500 100 74 227 86 335 31z"/>
<path d="M5778 10073 c-31 -3 -48 -9 -48 -17 0 -34 23 -36 386 -34 357 3 359
3 362 24 3 20 -2 21 -135 27 -142 7 -482 6 -565 0z"/>
<path d="M8617 10073 c-33 -4 -38 -8 -35 -26 l3 -22 365 0 365 0 3 23 3 22
-173 0 c-95 0 -245 2 -333 4 -88 2 -177 2 -198 -1z"/>
<path d="M7455 9621 c-80 -16 -136 -50 -214 -130 -56 -58 -88 -82 -116 -90
-22 -6 -107 -11 -188 -11 l-149 0 -86 89 c-107 109 -162 134 -287 134 -98 1
-170 -24 -246 -82 -59 -44 -85 -79 -121 -156 -19 -40 -23 -67 -23 -141 0 -84
2 -95 38 -166 45 -91 111 -156 195 -190 46 -19 74 -23 147 -22 139 3 189 26
297 135 l86 89 177 0 178 0 82 -83 c92 -94 143 -123 242 -139 156 -24 228 4
355 136 l77 81 162 3 c89 2 174 0 188 -3 14 -4 58 -40 98 -80 79 -82 122 -107
215 -131 88 -23 172 -14 252 25 81 40 134 92 177 177 32 64 34 74 34 168 0 89
-3 108 -27 159 -33 70 -112 155 -175 189 -61 33 -153 52 -216 45 -97 -12 -208
-80 -276 -171 -21 -27 -47 -50 -67 -56 -19 -7 -98 -10 -197 -8 l-165 3 -84 86
c-59 61 -100 94 -141 113 -63 29 -154 40 -222 27z m-951 -76 c74 -19 102 -40
166 -119 73 -93 97 -100 303 -94 89 3 176 11 192 17 17 7 66 48 110 91 113
112 195 137 342 105 77 -16 79 -17 155 -96 42 -44 94 -87 115 -95 44 -19 274
-27 363 -13 52 8 59 12 135 94 95 101 129 117 255 119 76 0 92 -3 150 -31 210
-102 250 -350 83 -516 -94 -94 -220 -120 -346 -70 -58 23 -79 38 -130 94 -89
100 -116 109 -318 109 -190 0 -223 -10 -279 -85 -101 -135 -246 -178 -395
-119 -54 22 -77 39 -127 95 -89 99 -117 109 -315 109 -145 0 -162 -2 -208 -24
-33 -15 -62 -39 -84 -69 -41 -55 -89 -91 -160 -117 -145 -56 -326 20 -397 167
-24 47 -28 69 -28 142 -1 75 2 93 27 141 48 92 103 136 207 164 72 19 113 19
184 1z"/>
<path d="M5210 9241 c0 -20 6 -31 17 -33 9 -2 166 -2 349 0 350 3 354 3 338
47 -5 13 -54 15 -355 15 l-349 0 0 -29z"/>
<path d="M9147 9263 c-13 -12 -7 -41 9 -47 9 -3 168 -6 355 -6 l339 0 0 30 0
30 -348 0 c-192 0 -352 -3 -355 -7z"/>
<path d="M6891 8779 c-68 -12 -167 -66 -214 -118 -20 -22 -49 -64 -64 -93 -25
-48 -28 -63 -28 -158 0 -100 2 -108 34 -172 19 -38 53 -87 75 -109 56 -59 154
-102 239 -107 133 -8 221 30 333 145 l80 83 168 0 c108 0 175 -4 189 -12 12
-6 56 -46 97 -88 89 -91 149 -120 272 -128 66 -4 85 -1 146 23 85 33 150 88
190 159 74 131 79 246 17 373 -72 145 -226 225 -393 204 -102 -13 -171 -50
-239 -129 -32 -37 -62 -70 -68 -74 -5 -4 -96 -8 -201 -8 l-190 0 -75 78 c-78
82 -127 112 -217 131 -60 12 -74 12 -151 0z m214 -78 c34 -15 74 -47 125 -101
70 -73 79 -79 134 -90 36 -7 112 -11 190 -8 159 5 201 20 261 95 54 68 101
100 176 119 83 21 152 14 236 -26 128 -60 189 -160 181 -300 -5 -93 -39 -161
-111 -226 -53 -47 -147 -84 -216 -84 -93 0 -202 56 -261 135 -22 29 -53 55
-87 71 -52 26 -56 26 -225 23 -201 -5 -207 -7 -295 -108 -118 -133 -289 -158
-435 -61 -50 33 -107 111 -127 173 -18 53 -15 152 6 209 60 167 278 254 448
179z"/>
<path d="M5748 8443 c-21 -5 -23 -24 -6 -41 14 -14 704 -17 726 -3 8 5 12 17
10 27 -3 18 -19 19 -358 20 -195 1 -363 0 -372 -3z"/>
<path d="M8586 8437 c-17 -13 -17 -14 -1 -30 15 -16 49 -17 373 -15 l357 3 0
25 0 25 -355 3 c-284 2 -360 0 -374 -11z"/>
<path d="M10915 8109 c-9 -14 -15 -406 -8 -506 4 -54 10 -72 22 -76 37 -9 41
2 41 119 0 65 4 114 10 114 5 0 44 -33 87 -73 179 -168 193 -178 207 -140 5
13 -23 48 -113 138 -67 66 -124 124 -128 128 -4 4 51 65 121 136 90 90 127
134 124 147 -7 40 -38 23 -166 -95 -71 -67 -133 -121 -136 -121 -3 0 -6 52 -6
115 0 63 -4 115 -9 115 -5 0 -16 3 -24 6 -8 3 -18 0 -22 -7z"/>
<path d="M11836 8097 c-3 -12 -6 -142 -6 -288 0 -234 2 -268 16 -273 9 -3 73
-6 144 -6 142 0 160 3 160 31 0 14 -8 19 -27 20 -16 1 -68 3 -118 4 -49 2 -94
4 -98 4 -4 1 -6 49 -5 107 l3 106 99 3 c101 4 123 12 113 39 -5 13 -25 16
-112 16 l-105 0 0 95 0 94 123 3 122 3 3 28 3 27 -118 1 c-65 1 -134 3 -154 4
-31 3 -38 0 -43 -18z"/>
<path d="M12717 8112 c-16 -3 -17 -23 -15 -290 l3 -287 125 -3 c154 -4 190 2
190 28 0 11 -6 21 -12 21 -7 1 -20 3 -28 4 -8 1 -59 3 -113 4 l-98 1 3 108 c3
123 -14 108 131 111 75 1 77 2 77 26 l0 25 -105 0 -105 0 0 95 0 95 83 1 c45
1 87 2 92 4 6 1 25 3 43 3 27 2 32 6 32 26 0 23 -2 24 -122 29 -129 6 -152 6
-181 -1z"/>
<path d="M13587 8113 c-16 -4 -17 -24 -15 -291 l3 -287 25 0 25 0 3 128 3 127
65 0 c109 0 175 44 193 128 18 85 -35 174 -114 192 -41 10 -156 11 -188 3z
m158 -63 c81 -18 113 -107 61 -167 -22 -26 -30 -28 -98 -28 l-73 0 -3 94 c-3
117 6 126 113 101z"/>
<path d="M15164 8105 c-3 -6 -3 -136 -2 -290 l3 -280 25 0 25 0 3 127 3 127
107 3 107 3 3 33 3 32 -110 0 -111 0 0 94 0 93 46 7 c26 3 82 6 125 6 72 0 79
2 79 20 0 11 1 23 3 28 4 12 -305 9 -309 -3z"/>
<path d="M18242 8083 c-11 -21 -50 -119 -87 -218 -37 -99 -70 -183 -74 -187
-4 -5 -26 43 -49 105 -129 348 -116 322 -151 325 -17 2 -31 -1 -31 -7 0 -15
61 -191 114 -326 25 -66 58 -150 72 -187 25 -66 41 -81 62 -55 10 12 116 290
147 384 19 61 31 73 40 41 9 -31 89 -245 127 -338 57 -142 67 -139 129 35 15
44 43 121 62 170 52 137 99 276 95 280 -2 2 -16 5 -31 7 -27 3 -29 0 -73 -117
-91 -246 -119 -315 -128 -312 -5 2 -17 27 -28 57 -83 229 -132 357 -141 368
-17 22 -36 13 -55 -25z"/>
<path d="M19865 8111 c-4 -8 -10 -527 -6 -568 0 -7 12 -13 26 -13 l25 0 1 158
c1 86 4 184 8 217 l6 60 89 -145 c173 -279 206 -321 228 -288 4 7 7 141 5 298
l-2 285 -25 0 c-23 0 -26 -5 -32 -55 -3 -30 -6 -129 -7 -220 l-1 -165 -38 65
c-56 97 -233 364 -246 372 -15 10 -24 10 -31 -1z"/>
<path d="M16007 7828 c2 -155 7 -286 11 -290 5 -5 61 -6 125 -2 105 6 117 9
117 25 0 17 -9 19 -94 19 -89 0 -94 1 -100 23 -3 12 -6 131 -6 265 l0 242 -27
0 -28 0 2 -282z"/>
<path d="M16959 8096 c-45 -16 -102 -59 -126 -94 -40 -60 -46 -80 -51 -163 -5
-101 11 -149 74 -218 60 -68 103 -85 209 -86 74 0 97 4 131 22 54 29 100 78
131 138 37 72 37 182 -1 260 -29 59 -88 115 -149 140 -44 18 -168 19 -218 1z
m232 -81 c75 -54 101 -95 106 -172 8 -110 -40 -190 -139 -233 -114 -49 -241
-2 -298 110 -29 58 -34 102 -16 164 33 112 112 167 233 163 61 -2 78 -7 114
-32z"/>
<path d="M19204 8088 c3 -13 6 -143 6 -290 l0 -268 25 0 25 0 0 280 c0 154 1
283 3 288 1 4 -13 8 -32 10 -31 3 -33 2 -27 -20z"/>
<path d="M21017 8100 c-75 -24 -159 -114 -183 -198 -40 -138 33 -285 175 -350
101 -46 247 -16 310 64 18 23 21 41 21 116 0 129 1 128 -125 128 -81 0 -107
-3 -119 -16 -20 -19 -20 -19 0 -39 13 -13 34 -16 93 -14 86 3 88 0 90 -92 1
-55 -16 -74 -85 -95 -61 -18 -101 -18 -155 1 -127 45 -188 209 -124 335 32 64
84 99 163 110 89 12 144 -3 191 -54 27 -28 56 -34 64 -12 9 22 -16 58 -61 91
-40 28 -51 30 -135 32 -51 1 -104 -2 -120 -7z"/>
<path d="M7440 7921 c-82 -26 -113 -46 -160 -98 -60 -68 -72 -103 -72 -205 0
-104 20 -154 91 -226 70 -72 108 -87 221 -87 87 0 100 3 149 30 57 31 120 102
148 164 22 50 21 193 -2 246 -39 90 -116 151 -229 181 -65 17 -79 17 -146 -5z
m173 -62 c51 -13 110 -69 141 -132 63 -124 8 -273 -127 -344 -21 -11 -56 -17
-102 -17 -91 -1 -151 27 -206 96 -46 59 -63 115 -56 184 7 63 23 97 79 158 64
71 148 88 271 55z"/>
<path d="M7478 7659 c-10 -5 -18 -16 -18 -24 0 -19 34 -27 91 -23 33 2 45 7
47 22 2 10 -2 22 -10 27 -18 12 -89 11 -110 -2z"/>
<path d="M6462 7643 l3 -28 330 0 330 0 0 25 0 25 -333 3 -333 2 3 -27z"/>
<path d="M7937 7663 c-15 -15 -6 -43 16 -48 12 -3 162 -4 332 -3 l310 3 3 28
3 27 -329 0 c-181 0 -332 -3 -335 -7z"/>
</g>
</svg>
